<svg width="268" height="39" viewBox="0 0 268 39" fill="none" xmlns="http://www.w3.org/2000/svg">
<g filter="url(#filter0_d_94_355)">
<path d="M44.08 2.08L36.28 30H29.68L24.44 10.12L18.96 30L12.4 30.04L4.88 2.08H10.88L15.8 23.76L21.48 2.08H27.72L33.08 23.64L38.04 2.08H44.08ZM68.3366 18.44C68.3366 19.24 68.2832 19.96 68.1766 20.6H51.9766C52.1099 22.2 52.6699 23.4533 53.6566 24.36C54.6432 25.2667 55.8566 25.72 57.2966 25.72C59.3766 25.72 60.8566 24.8267 61.7366 23.04H67.7766C67.1366 25.1733 65.9099 26.9333 64.0966 28.32C62.2832 29.68 60.0566 30.36 57.4166 30.36C55.2832 30.36 53.3632 29.8933 51.6566 28.96C49.9766 28 48.6566 26.6533 47.6966 24.92C46.7632 23.1867 46.2966 21.1867 46.2966 18.92C46.2966 16.6267 46.7632 14.6133 47.6966 12.88C48.6299 11.1467 49.9366 9.81333 51.6166 8.88C53.2966 7.94667 55.2299 7.48 57.4166 7.48C59.5232 7.48 61.4032 7.93333 63.0566 8.84C64.7366 9.74667 66.0299 11.04 66.9366 12.72C67.8699 14.3733 68.3366 16.28 68.3366 18.44ZM62.5366 16.84C62.5099 15.4 61.9899 14.2533 60.9766 13.4C59.9632 12.52 58.7232 12.08 57.2566 12.08C55.8699 12.08 54.6966 12.5067 53.7366 13.36C52.8032 14.1867 52.2299 15.3467 52.0166 16.84H62.5366ZM93.0241 18.44C93.0241 19.24 92.9707 19.96 92.8641 20.6H76.6641C76.7974 22.2 77.3574 23.4533 78.3441 24.36C79.3307 25.2667 80.5441 25.72 81.9841 25.72C84.0641 25.72 85.5441 24.8267 86.4241 23.04H92.4641C91.8241 25.1733 90.5974 26.9333 88.7841 28.32C86.9707 29.68 84.7441 30.36 82.1041 30.36C79.9707 30.36 78.0507 29.8933 76.3441 28.96C74.6641 28 73.3441 26.6533 72.3841 24.92C71.4507 23.1867 70.9841 21.1867 70.9841 18.92C70.9841 16.6267 71.4507 14.6133 72.3841 12.88C73.3174 11.1467 74.6241 9.81333 76.3041 8.88C77.9841 7.94667 79.9174 7.48 82.1041 7.48C84.2107 7.48 86.0907 7.93333 87.7441 8.84C89.4241 9.74667 90.7174 11.04 91.6241 12.72C92.5574 14.3733 93.0241 16.28 93.0241 18.44ZM87.2241 16.84C87.1974 15.4 86.6774 14.2533 85.6641 13.4C84.6507 12.52 83.4107 12.08 81.9441 12.08C80.5574 12.08 79.3841 12.5067 78.4241 13.36C77.4907 14.1867 76.9174 15.3467 76.7041 16.84H87.2241ZM102.712 11.28C103.432 10.1067 104.365 9.18667 105.512 8.52C106.685 7.85333 108.018 7.52 109.512 7.52V13.4H108.032C106.272 13.4 104.938 13.8133 104.032 14.64C103.152 15.4667 102.712 16.9067 102.712 18.96V30H97.1116V7.84H102.712V11.28ZM111.843 18.84C111.843 16.6 112.283 14.6133 113.163 12.88C114.07 11.1467 115.283 9.81333 116.803 8.88C118.35 7.94667 120.07 7.48 121.963 7.48C123.617 7.48 125.057 7.81333 126.283 8.48C127.537 9.14667 128.537 9.98667 129.283 11V7.84H134.923V30H129.283V26.76C128.563 27.8 127.563 28.6667 126.283 29.36C125.03 30.0267 123.577 30.36 121.923 30.36C120.057 30.36 118.35 29.88 116.803 28.92C115.283 27.96 114.07 26.6133 113.163 24.88C112.283 23.12 111.843 21.1067 111.843 18.84ZM129.283 18.92C129.283 17.56 129.017 16.4 128.483 15.44C127.95 14.4533 127.23 13.7067 126.323 13.2C125.417 12.6667 124.443 12.4 123.403 12.4C122.363 12.4 121.403 12.6533 120.523 13.16C119.643 13.6667 118.923 14.4133 118.363 15.4C117.83 16.36 117.563 17.5067 117.563 18.84C117.563 20.1733 117.83 21.3467 118.363 22.36C118.923 23.3467 119.643 24.1067 120.523 24.64C121.43 25.1733 122.39 25.44 123.403 25.44C124.443 25.44 125.417 25.1867 126.323 24.68C127.23 24.1467 127.95 23.4 128.483 22.44C129.017 21.4533 129.283 20.28 129.283 18.92ZM161.313 7.84V30H155.673V27.2C154.953 28.16 154.006 28.92 152.833 29.48C151.686 30.0133 150.433 30.28 149.073 30.28C147.339 30.28 145.806 29.92 144.473 29.2C143.139 28.4533 142.086 27.3733 141.313 25.96C140.566 24.52 140.193 22.8133 140.193 20.84V7.84H145.793V20.04C145.793 21.8 146.233 23.16 147.113 24.12C147.993 25.0533 149.193 25.52 150.713 25.52C152.259 25.52 153.473 25.0533 154.353 24.12C155.233 23.16 155.673 21.8 155.673 20.04V7.84H161.313ZM175.318 30.36C173.505 30.36 171.878 30.04 170.438 29.4C168.998 28.7333 167.851 27.84 166.998 26.72C166.171 25.6 165.718 24.36 165.638 23H171.278C171.385 23.8533 171.798 24.56 172.518 25.12C173.265 25.68 174.185 25.96 175.278 25.96C176.345 25.96 177.171 25.7467 177.758 25.32C178.371 24.8933 178.678 24.3467 178.678 23.68C178.678 22.96 178.305 22.4267 177.558 22.08C176.838 21.7067 175.678 21.3067 174.078 20.88C172.425 20.48 171.065 20.0667 169.998 19.64C168.958 19.2133 168.051 18.56 167.278 17.68C166.531 16.8 166.158 15.6133 166.158 14.12C166.158 12.8933 166.505 11.7733 167.198 10.76C167.918 9.74666 168.931 8.94667 170.238 8.36C171.571 7.77333 173.131 7.48 174.918 7.48C177.558 7.48 179.665 8.14667 181.238 9.48C182.811 10.7867 183.678 12.56 183.838 14.8H178.478C178.398 13.92 178.025 13.2267 177.358 12.72C176.718 12.1867 175.851 11.92 174.758 11.92C173.745 11.92 172.958 12.1067 172.398 12.48C171.865 12.8533 171.598 13.3733 171.598 14.04C171.598 14.7867 171.971 15.36 172.718 15.76C173.465 16.1333 174.625 16.52 176.198 16.92C177.798 17.32 179.118 17.7333 180.158 18.16C181.198 18.5867 182.091 19.2533 182.838 20.16C183.611 21.04 184.011 22.2133 184.038 23.68C184.038 24.96 183.678 26.1067 182.958 27.12C182.265 28.1333 181.251 28.9333 179.918 29.52C178.611 30.08 177.078 30.36 175.318 30.36ZM187.195 18.84C187.195 16.6 187.635 14.6133 188.515 12.88C189.422 11.1467 190.635 9.81333 192.155 8.88C193.702 7.94667 195.422 7.48 197.315 7.48C198.968 7.48 200.408 7.81333 201.635 8.48C202.888 9.14667 203.888 9.98667 204.635 11V7.84H210.275V30H204.635V26.76C203.915 27.8 202.915 28.6667 201.635 29.36C200.382 30.0267 198.928 30.36 197.275 30.36C195.408 30.36 193.702 29.88 192.155 28.92C190.635 27.96 189.422 26.6133 188.515 24.88C187.635 23.12 187.195 21.1067 187.195 18.84ZM204.635 18.92C204.635 17.56 204.368 16.4 203.835 15.44C203.302 14.4533 202.582 13.7067 201.675 13.2C200.768 12.6667 199.795 12.4 198.755 12.4C197.715 12.4 196.755 12.6533 195.875 13.16C194.995 13.6667 194.275 14.4133 193.715 15.4C193.182 16.36 192.915 17.5067 192.915 18.84C192.915 20.1733 193.182 21.3467 193.715 22.36C194.275 23.3467 194.995 24.1067 195.875 24.64C196.782 25.1733 197.742 25.44 198.755 25.44C199.795 25.44 200.768 25.1867 201.675 24.68C202.582 24.1467 203.302 23.4 203.835 22.44C204.368 21.4533 204.635 20.28 204.635 18.92ZM228.224 7.52C229.904 7.52 231.398 7.89333 232.704 8.64C234.011 9.36 235.024 10.44 235.744 11.88C236.491 13.2933 236.864 15 236.864 17V30H231.264V17.76C231.264 16 230.824 14.6533 229.944 13.72C229.064 12.76 227.864 12.28 226.344 12.28C224.798 12.28 223.571 12.76 222.664 13.72C221.784 14.6533 221.344 16 221.344 17.76V30H215.744V0.4H221.344V10.6C222.064 9.64 223.024 8.89333 224.224 8.36C225.424 7.8 226.758 7.52 228.224 7.52ZM240.75 18.84C240.75 16.6 241.19 14.6133 242.07 12.88C242.976 11.1467 244.19 9.81333 245.71 8.88C247.256 7.94667 248.976 7.48 250.87 7.48C252.523 7.48 253.963 7.81333 255.19 8.48C256.443 9.14667 257.443 9.98667 258.19 11V7.84H263.83V30H258.19V26.76C257.47 27.8 256.47 28.6667 255.19 29.36C253.936 30.0267 252.483 30.36 250.83 30.36C248.963 30.36 247.256 29.88 245.71 28.92C244.19 27.96 242.976 26.6133 242.07 24.88C241.19 23.12 240.75 21.1067 240.75 18.84ZM258.19 18.92C258.19 17.56 257.923 16.4 257.39 15.44C256.856 14.4533 256.136 13.7067 255.23 13.2C254.323 12.6667 253.35 12.4 252.31 12.4C251.27 12.4 250.31 12.6533 249.43 13.16C248.55 13.6667 247.83 14.4133 247.27 15.4C246.736 16.36 246.47 17.5067 246.47 18.84C246.47 20.1733 246.736 21.3467 247.27 22.36C247.83 23.3467 248.55 24.1067 249.43 24.64C250.336 25.1733 251.296 25.44 252.31 25.44C253.35 25.44 254.323 25.1867 255.23 24.68C256.136 24.1467 256.856 23.4 257.39 22.44C257.923 21.4533 258.19 20.28 258.19 18.92Z" fill="url(#paint0_linear_94_355)"/>
</g>
<defs>
<filter id="filter0_d_94_355" x="0.880001" y="0.400024" width="266.95" height="37.96" filterUnits="userSpaceOnUse" color-interpolation-filters="sRGB">
<feFlood flood-opacity="0" result="BackgroundImageFix"/>
<feColorMatrix in="SourceAlpha" type="matrix" values="0 0 0 0 0 0 0 0 0 0 0 0 0 0 0 0 0 0 127 0" result="hardAlpha"/>
<feOffset dy="4"/>
<feGaussianBlur stdDeviation="2"/>
<feComposite in2="hardAlpha" operator="out"/>
<feColorMatrix type="matrix" values="0 0 0 0 0 0 0 0 0 0 0 0 0 0 0 0 0 0 0.25 0"/>
<feBlend mode="normal" in2="BackgroundImageFix" result="effect1_dropShadow_94_355"/>
<feBlend mode="normal" in="SourceGraphic" in2="effect1_dropShadow_94_355" result="shape"/>
</filter>
<linearGradient id="paint0_linear_94_355" x1="4" y1="16" x2="267" y2="16" gradientUnits="userSpaceOnUse">
<stop stop-color="#E7B800"/>
<stop offset="1" stop-color="#816700"/>
</linearGradient>
</defs>
</svg>
